<svg xmlns="http://www.w3.org/2000/svg" shape-rendering="geometricPrecision" text-rendering="geometricPrecision"
     image-rendering="optimizeQuality" fill-rule="evenodd" clip-rule="evenodd" viewBox="0 0 464 511.863">
    <path
        d="M21.123 259.247h16.714V52.395c0-14.396 5.893-27.485 15.384-36.979l.033-.033C62.748 5.892 75.837 0 90.232 0h230.505a7.998 7.998 0 016.39 3.183l96.876 104.809a7.937 7.937 0 012.118 5.411h.041v145.844h16.714c11.618 0 21.124 9.525 21.124 21.124v163.863c0 11.599-9.526 21.124-21.124 21.124h-17.054c-1.388 11.968-6.94 22.812-15.129 31.003l-.033.033c-9.515 9.513-22.613 15.469-36.893 15.469H90.232c-14.327 0-27.463-5.918-36.984-15.439l-.448-.487c-7.921-8.113-13.277-18.768-14.628-30.579H21.123C9.526 465.358 0 455.853 0 444.234V280.371c0-11.619 9.506-21.124 21.123-21.124zm32.731 0h356.292V136.525h-32.219v-.033h-.124c-19.111-.302-34.068-5.373-44.736-14.486-11.073-9.458-17.282-22.969-18.52-39.763l-.075-1.098V16.016H90.232c-10.01 0-19.108 4.091-25.705 10.674-6.583 6.596-10.673 15.694-10.673 25.705v206.852zm355.797 206.111H54.339c1.238 7.449 4.779 14.16 9.839 19.374l.393.369c6.628 6.627 15.744 10.745 25.661 10.745h283.535c9.895 0 18.993-4.145 25.62-10.758 5.276-5.288 8.982-12.148 10.264-19.73zm-177.829-332.58c1.2-5.152 6.352-8.357 11.505-7.158 5.153 1.2 8.357 6.352 7.158 11.505l-20.773 88.972c-1.199 5.153-6.352 8.358-11.504 7.158-5.153-1.199-8.358-6.352-7.158-11.505l20.772-88.972zm45.471 85.71c-3.972 3.477-10.016 3.073-13.493-.9-3.478-3.972-3.073-10.016.899-13.493l28.14-24.658-28.14-24.656c-3.972-3.478-4.377-9.521-.899-13.494 3.477-3.972 9.521-4.377 13.493-.899l36.318 31.826c.328.283.639.591.933.927 3.477 3.972 3.073 10.016-.899 13.493l-36.352 31.854zm-77.99-14.393c3.972 3.477 4.377 9.521.9 13.493-3.478 3.973-9.521 4.377-13.494.9l-36.354-31.854c-3.972-3.477-4.377-9.521-.9-13.493.295-.336.606-.644.933-.927l36.321-31.826c3.973-3.478 10.016-3.073 13.494.899 3.477 3.973 3.072 10.016-.9 13.494l-28.14 24.656 28.14 24.658zM330.467 30.272V81.11c.913 12.412 5.265 22.192 12.97 28.775 7.822 6.682 19.34 10.418 34.49 10.676v-.03h32.219v-4.052l-79.679-86.207zM113.525 403.267l3.805-22.418c8.332 2.083 15.826 3.122 22.483 3.122 6.66 0 12.025-.269 16.102-.814v-6.792l-12.228-1.087c-11.051-.998-18.636-3.648-22.759-7.95-4.121-4.302-6.182-10.665-6.182-19.089 0-11.593 2.515-19.565 7.541-23.911 5.029-4.35 13.565-6.523 25.611-6.523 12.047 0 22.916 1.133 32.61 3.397l-3.397 21.739c-8.423-1.359-15.172-2.039-20.244-2.039-5.073 0-9.376.226-12.908.68v6.657l9.782.952c11.865 1.177 20.063 4.008 24.591 8.492 4.531 4.484 6.795 10.71 6.795 18.682 0 5.705-.77 10.528-2.31 14.47-1.541 3.94-3.373 6.927-5.502 8.965-2.13 2.039-5.142 3.602-9.037 4.688-3.893 1.087-7.313 1.744-10.256 1.97-2.943.228-6.864.341-11.755.341-11.774 0-22.687-1.177-32.742-3.532zm130.16-83.423h28.667l-21.058 84.916h-39.675l-21.059-84.916h28.668l11.549 53.938h1.224l11.684-53.938zm80.974 59.916v-3.668h-6.929v-20.789h32.745v45.38c-10.779 4.077-21.92 6.116-33.425 6.116-15.488 0-26.131-3.76-31.925-11.276-2.99-3.896-5.073-8.471-6.25-13.725-1.177-5.251-1.766-11.752-1.766-19.496 0-7.744.611-14.22 1.835-19.43 1.221-5.208 3.416-9.758 6.588-13.653 5.975-7.609 17.524-11.414 34.643-11.414 3.533 0 8.129.363 13.791 1.086 5.662.727 9.804 1.541 12.432 2.446l-4.074 20.789c-7.34-1.268-13.973-1.903-19.906-1.903-5.935 0-10.099.453-12.501 1.359-2.399.905-3.601 2.718-3.601 5.436v38.45h8.968c3.26 0 5.64-.341 7.134-1.02 1.493-.68 2.241-2.243 2.241-4.688z"/>
</svg>
